<svg width="33" height="32" viewBox="0 0 33 32" fill="none" xmlns="http://www.w3.org/2000/svg">
<g clip-path="url(#clip0_11_7)">
<path d="M16.1568 0.00999451L15.5318 2.85724L16.1568 5.98512C21.6845 5.98512 26.1817 10.4822 26.1817 16.01C26.1817 21.5377 21.6845 26.0349 16.1568 26.0349L15.5318 28.6009L16.1568 32.01C24.9934 32.01 32.1568 24.8466 32.1568 16.01C32.1568 7.17343 24.9934 0.00999451 16.1568 0.00999451Z" fill="#29CCCC"/>
<path d="M22.1983 16.01C22.1983 12.6734 19.4934 9.96849 16.1568 9.96849L15.5318 16.01L16.1568 22.0515C19.4934 22.0515 22.1983 19.3466 22.1983 16.01Z" fill="#282866"/>
<path d="M6.13186 26.0349V16.01C6.13186 10.4822 10.629 5.98512 16.1567 5.98512V0.00999451C7.32018 0.00999451 0.156738 7.17343 0.156738 16.01V32.01H16.1567V26.0349H6.13186Z" fill="#2EE6E6"/>
<path d="M10.1153 16.01C10.1153 19.3466 12.8202 22.0515 16.1568 22.0515V9.96849C12.8202 9.96849 10.1153 12.6734 10.1153 16.01Z" fill="#4A4080"/>
</g>
<defs>
<clipPath id="clip0_11_7">
<rect width="32" height="32" fill="white" transform="translate(0.156738 0.00999451)"/>
</clipPath>
</defs>
</svg>
