<svg width="40" height="41" viewBox="0 0 40 41" fill="none" xmlns="http://www.w3.org/2000/svg">
<rect y="0.51001" width="40" height="40" rx="20" fill="#F6F8FB"/>
<g clip-path="url(#clip0_11_17)">
<path d="M20 12.51C19.8011 12.51 19.6103 12.589 19.4697 12.7297C19.329 12.8703 19.25 13.0611 19.25 13.26C19.25 13.4589 19.329 13.6497 19.4697 13.7903C19.6103 13.931 19.8011 14.01 20 14.01C21.7239 14.01 23.3772 14.6948 24.5962 15.9138C25.8152 17.1328 26.5 18.7861 26.5 20.51C26.5 22.2339 25.8152 23.8872 24.5962 25.1062C23.3772 26.3252 21.7239 27.01 20 27.01C19.8011 27.01 19.6103 27.089 19.4697 27.2297C19.329 27.3703 19.25 27.5611 19.25 27.76C19.25 27.9589 19.329 28.1497 19.4697 28.2903C19.6103 28.431 19.8011 28.51 20 28.51C22.1217 28.51 24.1566 27.6672 25.6569 26.1669C27.1571 24.6666 28 22.6317 28 20.51C28 18.3883 27.1571 16.3534 25.6569 14.8532C24.1566 13.3529 22.1217 12.51 20 12.51Z" fill="#788BA5"/>
<path d="M12.75 19.76C12.5511 19.76 12.3603 19.839 12.2197 19.9797C12.079 20.1203 12 20.3111 12 20.51C12 20.7089 12.079 20.8997 12.2197 21.0403C12.3603 21.181 12.5511 21.26 12.75 21.26H19.44L17.72 22.98C17.6463 23.0487 17.5872 23.1315 17.5462 23.2235C17.5052 23.3155 17.4832 23.4148 17.4814 23.5155C17.4796 23.6162 17.4982 23.7162 17.5359 23.8096C17.5736 23.903 17.6297 23.9878 17.701 24.059C17.7722 24.1303 17.857 24.1864 17.9504 24.2241C18.0438 24.2619 18.1438 24.2804 18.2445 24.2786C18.3452 24.2768 18.4445 24.2548 18.5365 24.2138C18.6285 24.1728 18.7113 24.1137 18.78 24.04L21.78 21.04C21.9205 20.8994 21.9993 20.7088 21.9993 20.51C21.9993 20.3113 21.9205 20.1206 21.78 19.98L18.78 16.98C18.6378 16.8475 18.4498 16.7754 18.2555 16.7788C18.0612 16.7823 17.8758 16.861 17.7384 16.9984C17.601 17.1358 17.5223 17.3212 17.5188 17.5155C17.5154 17.7098 17.5875 17.8978 17.72 18.04L19.44 19.76H12.75Z" fill="#788BA5"/>
</g>
<defs>
<clipPath id="clip0_11_17">
<rect width="20" height="20" fill="white" transform="translate(10 10.51)"/>
</clipPath>
</defs>
</svg>
